<svg width="35" height="36" viewBox="0 0 35 36" fill="none" xmlns="http://www.w3.org/2000/svg">
<path d="M21.0411 3.49377C21.5727 3.21591 22.2191 3.44116 22.4848 3.99689L25.643 10.6004C27.5845 10.7563 28.8027 11.1544 29.5888 12.171C30.2135 12.9788 30.4157 13.9839 30.3414 15.375H4.09471C4.02042 13.9839 4.22261 12.9788 4.84731 12.171C5.63336 11.1544 6.85162 10.7563 8.79299 10.6004L11.9512 3.99689C12.217 3.44116 12.8633 3.21591 13.3949 3.49377C13.9265 3.77163 14.1419 4.44739 13.8761 5.00312L11.2434 10.5079C11.9367 10.5 12.6933 10.5 13.5191 10.5H20.917C21.7428 10.5 22.4993 10.5 23.1926 10.5079L20.5599 5.00312C20.2941 4.44739 20.5096 3.77163 21.0411 3.49377Z" fill="#3CBABA"/>
<path fill-rule="evenodd" clip-rule="evenodd" d="M5.10147 21.3858C4.80447 19.9368 4.55026 18.6965 4.36973 17.625H30.0664C29.8859 18.6965 29.6317 19.9367 29.3347 21.3857L28.7197 24.3858C28.021 27.7946 27.6717 29.499 26.4879 30.4995C25.3041 31.5 23.6368 31.5 20.3021 31.5H14.134C10.7994 31.5 9.13203 31.5 7.94824 30.4995C6.76443 29.499 6.41508 27.7946 5.71638 24.3858L5.10147 21.3858ZM14.3484 19.875C13.7541 19.875 13.2724 20.3787 13.2724 21C13.2724 21.6213 13.7541 22.125 14.3484 22.125H20.0876C20.6819 22.125 21.1637 21.6213 21.1637 21C21.1637 20.3787 20.6819 19.875 20.0876 19.875H14.3484Z" fill="#3CBABA"/>
</svg>
