<svg width="35" height="36" viewBox="0 0 35 36" fill="none" xmlns="http://www.w3.org/2000/svg">
<path d="M31.5648 9C31.5648 11.4853 29.6377 13.5 27.2604 13.5C24.8832 13.5 22.9561 11.4853 22.9561 9C22.9561 6.51472 24.8832 4.5 27.2604 4.5C29.6377 4.5 31.5648 6.51472 31.5648 9Z" fill="#B8B8B8"/>
<path fill-rule="evenodd" clip-rule="evenodd" d="M20.0865 7.5H14.3474C8.9365 7.5 6.23105 7.5 4.55009 9.25736C2.86914 11.0147 2.86914 13.8431 2.86914 19.5C2.86914 25.1569 2.86914 27.9853 4.55009 29.7426C6.23105 31.5 8.9365 31.5 14.3474 31.5H20.0865C25.4974 31.5 28.2029 31.5 29.8838 29.7426C31.5648 27.9853 31.5648 25.1569 31.5648 19.5C31.5648 17.32 31.5648 15.56 31.4686 14.1195C30.3384 15.1357 28.8681 15.75 27.2604 15.75C26.5736 15.75 25.9119 15.6379 25.291 15.4302L23.3631 17.1098C22.0913 18.2178 21.0606 19.1159 20.1508 19.7276C19.2032 20.3648 18.2803 20.7673 17.217 20.7673C16.1537 20.7673 15.2308 20.3648 14.2831 19.7276C13.3734 19.1159 12.3426 18.2178 11.0709 17.1099L7.91938 14.3642C7.46282 13.9665 7.40113 13.2571 7.7816 12.7798C8.16206 12.3025 8.84061 12.238 9.29717 12.6358L12.3947 15.3344C13.7333 16.5006 14.6627 17.3076 15.4473 17.8352C16.2068 18.3459 16.7219 18.5173 17.217 18.5173C17.7121 18.5173 18.2271 18.3459 18.9867 17.8352C19.7713 17.3076 20.7006 16.5006 22.0392 15.3344L23.2437 14.285C21.757 13.0484 20.8039 11.1406 20.8039 9C20.8039 8.48457 20.8592 7.98263 20.9638 7.5003C20.6796 7.5 20.3872 7.5 20.0865 7.5Z" fill="#3CBABA"/>
</svg>
