<svg width="36" height="36" viewBox="0 0 36 36" fill="none" xmlns="http://www.w3.org/2000/svg">
<path fill-rule="evenodd" clip-rule="evenodd" d="M24.2053 7.09273L26.9498 9.83718C30.9833 13.8707 33 15.8874 33 18.3935C33 20.8996 30.9833 22.9163 26.9498 26.9498C22.9163 30.9833 20.8996 33 18.3935 33C15.8874 33 13.8707 30.9833 9.83718 26.9498L7.09273 24.2053C4.77443 21.887 3.61527 20.7279 3.18396 19.224C2.75264 17.72 3.12125 16.1227 3.85847 12.9281L4.28361 11.0859C4.90384 8.39821 5.21395 7.05438 6.13417 6.13417C7.05438 5.21395 8.39821 4.90384 11.0859 4.28361L12.9281 3.85847C16.1227 3.12125 17.72 2.75264 19.224 3.18396C20.7279 3.61527 21.887 4.77443 24.2053 7.09273ZM16.72 21.4927C15.7106 20.4832 15.7191 19.0348 16.3228 17.887C16.0211 17.4487 16.0651 16.8442 16.4548 16.4545C16.8431 16.0662 17.4447 16.0211 17.8825 16.3192C18.3923 16.0483 18.9524 15.905 19.5106 15.9103C20.1319 15.9161 20.6308 16.4245 20.6249 17.0458C20.6191 17.6671 20.1107 18.166 19.4894 18.1602C19.224 18.1576 18.8753 18.2767 18.5762 18.5758C17.9949 19.1571 18.1478 19.7384 18.311 19.9017C18.4743 20.0649 19.0555 20.2178 19.6368 19.6365C20.8129 18.4604 22.8434 18.0701 24.1446 19.3713C25.1541 20.3808 25.1455 21.8292 24.5418 22.977C24.8435 23.4152 24.7995 24.0198 24.4098 24.4095C24.0214 24.7979 23.4197 24.8429 22.9818 24.5446C22.2965 24.9088 21.5168 25.0453 20.7735 24.8926C20.1649 24.7675 19.773 24.1727 19.898 23.5641C20.0231 22.9555 20.6179 22.5636 21.2265 22.6886C21.4922 22.7432 21.9206 22.656 22.2885 22.2881C22.8698 21.7068 22.7169 21.1256 22.5536 20.9623C22.3904 20.7991 21.8091 20.6462 21.2278 21.2275C20.0518 22.4035 18.0212 22.7939 16.72 21.4927ZM15.0314 15.4397C16.203 14.2681 16.203 12.3686 15.0314 11.197C13.8599 10.0255 11.9604 10.0255 10.7888 11.197C9.61723 12.3686 9.61723 14.2681 10.7888 15.4397C11.9604 16.6113 13.8599 16.6113 15.0314 15.4397Z" fill="#3CBABA"/>
</svg>
