<svg width="36" height="36" viewBox="0 0 36 36" fill="none" xmlns="http://www.w3.org/2000/svg">
<path d="M16.3894 3.54031C16.9195 3.86438 17.0866 4.55684 16.7625 5.08695C16.5273 5.47162 16.5863 5.96732 16.9051 6.28613L17.0519 6.43295C17.9349 7.31593 18.2605 8.61309 17.8992 9.80841C17.7194 10.4031 17.0915 10.7395 16.4968 10.5598C15.902 10.38 15.5656 9.75212 15.7454 9.15738C15.8667 8.756 15.7574 8.32043 15.4609 8.02394L15.3141 7.87712C14.2603 6.82333 14.0655 5.18488 14.8428 3.91338C15.1669 3.38327 15.8593 3.21624 16.3894 3.54031Z" fill="white"/>
<path d="M29.9619 10.5702C29.7542 10.6502 29.5702 10.8343 29.2021 11.2023C28.834 11.5704 28.65 11.7545 28.57 11.9621C28.4764 12.2051 28.4764 12.4741 28.57 12.7171C28.65 12.9247 28.834 13.1088 29.2021 13.4769C29.5702 13.8449 29.7542 14.029 29.9619 14.109C30.2048 14.2026 30.4739 14.2026 30.7169 14.109C30.9245 14.029 31.1085 13.8449 31.4766 13.4769C31.8447 13.1088 32.0288 12.9247 32.1088 12.7171C32.2024 12.4741 32.2024 12.2051 32.1088 11.9621C32.0288 11.7545 31.8447 11.5704 31.4766 11.2023C31.1085 10.8343 30.9245 10.6502 30.7169 10.5702C30.4739 10.4766 30.2048 10.4766 29.9619 10.5702Z" fill="white"/>
<path d="M32.112 18.8394C31.5695 18.6022 30.9385 18.7018 30.4954 19.0947C29.2816 20.1711 27.5151 20.35 26.11 19.5388L25.7908 19.3545C25.2527 19.0438 25.0683 18.3558 25.379 17.8177C25.6896 17.2796 26.3777 17.0953 26.9158 17.4059L27.235 17.5903C27.8014 17.9172 28.5134 17.8451 29.0026 17.4113C30.1019 16.4365 31.6673 16.1893 33.0134 16.7779L33.4507 16.969C34.0199 17.2179 34.2796 17.8812 34.0307 18.4505C33.7818 19.0198 33.1185 19.2795 32.5493 19.0306L32.112 18.8394Z" fill="white"/>
<path opacity="0.7" d="M20.3415 6.59471C20.6431 6.29313 20.7939 6.14234 20.9683 6.08707C21.1158 6.04031 21.2741 6.04031 21.4216 6.08707C21.5959 6.14234 21.7467 6.29313 22.0483 6.59471C22.3499 6.8963 22.5007 7.04709 22.5559 7.22145C22.6027 7.36892 22.6027 7.52725 22.5559 7.67473C22.5007 7.84908 22.3499 7.99987 22.0483 8.30145C21.7467 8.60304 21.5959 8.75384 21.4216 8.80911C21.2741 8.85586 21.1158 8.85586 20.9683 8.80911C20.7939 8.75384 20.6431 8.60305 20.3415 8.30146C20.04 7.99988 19.8892 7.84908 19.8339 7.67473C19.7871 7.52725 19.7871 7.36892 19.8339 7.22145C19.8892 7.04709 20.04 6.8963 20.3415 6.59471Z" fill="white"/>
<path opacity="0.7" d="M28.5872 22.97C28.9014 22.6558 29.4108 22.6558 29.725 22.97C30.0392 23.2842 30.0392 23.7937 29.725 24.1079C29.4108 24.4221 28.9014 24.4221 28.5872 24.1079C28.273 23.7937 28.273 23.2842 28.5872 22.97Z" fill="white"/>
<g opacity="0.5">
<path d="M10.3899 5.91119C10.7042 5.59699 11.2136 5.59699 11.5278 5.91119C11.842 6.22539 11.842 6.73482 11.5278 7.04902C11.2136 7.36322 10.7042 7.36322 10.3899 7.04902C10.0757 6.73482 10.0757 6.22539 10.3899 5.91119Z" fill="white"/>
<path d="M26.5331 7.08245C27.1423 7.2043 27.5374 7.79698 27.4156 8.40623L27.1996 9.48614C26.9024 10.9724 25.8316 12.1854 24.3937 12.6647C23.7218 12.8886 23.2214 13.4554 23.0825 14.1499L22.8666 15.2298C22.7447 15.8391 22.152 16.2342 21.5428 16.1123C20.9335 15.9905 20.5384 15.3978 20.6602 14.7885L20.8762 13.7086C21.1735 12.2224 22.2443 11.0094 23.6822 10.5301C24.3541 10.3062 24.8544 9.73935 24.9933 9.04488L25.2093 7.96497C25.3311 7.35572 25.9238 6.9606 26.5331 7.08245Z" fill="white"/>
</g>
<path opacity="0.2" d="M26.2493 14.6124C26.5635 14.2982 27.0729 14.2982 27.3872 14.6124C27.7014 14.9266 27.7014 15.436 27.3872 15.7502C27.0729 16.0644 26.5635 16.0644 26.2493 15.7502C25.9351 15.436 25.9351 14.9266 26.2493 14.6124Z" fill="white"/>
<path opacity="0.5" d="M6.01761 23.6427L8.55186 16.0399C9.70088 12.5929 10.2754 10.8693 11.6348 10.5484C12.9942 10.2275 14.2788 11.5122 16.8481 14.0815L21.9166 19.1499C24.4859 21.7192 25.7705 23.0039 25.4496 24.3633C25.1287 25.7227 23.4052 26.2972 19.9581 27.4462L12.3554 29.9804L12.3554 29.9804C8.20725 31.3631 6.13319 32.0545 5.03837 30.9597C3.94355 29.8649 4.63491 27.7908 6.01761 23.6427Z" fill="white"/>
<path d="M13.2001 11.2564L13.2761 10.8888C12.6864 10.5429 12.1665 10.423 11.6352 10.5484C11.4185 10.5996 11.2218 10.6864 11.0395 10.8101L12.0842 11.0259C11.3664 10.8776 11.1225 10.8271 11.0395 10.8101C11.0221 10.8219 11.0046 10.8342 10.9874 10.8467L10.9795 10.886C10.9686 10.9399 10.953 11.0186 10.9333 11.1199C10.8939 11.3224 10.8382 11.6152 10.7725 11.9799C10.6411 12.709 10.469 13.7278 10.3062 14.8886C9.98346 17.1884 9.68458 20.1269 9.83855 22.475C9.93172 23.8959 10.2273 25.6585 10.4911 27.0358C10.6243 27.7309 10.7518 28.34 10.846 28.7757C10.8931 28.9937 10.932 29.1686 10.9593 29.2896L10.991 29.4292L10.9995 29.4662L11.0024 29.4787C11.0024 29.4788 11.0027 29.4799 12.0984 29.225L11.0024 29.4787L11.2079 30.3617C11.5717 30.2418 11.954 30.1144 12.3558 29.9804L13.352 29.6484L13.1918 28.9599L13.1842 28.9267L13.1543 28.7952C13.1283 28.6798 13.0908 28.5112 13.0451 28.3001C12.9538 27.8776 12.83 27.2863 12.701 26.6125C12.4404 25.2519 12.1673 23.6027 12.0837 22.3278C11.9457 20.2221 12.2154 17.4743 12.5343 15.2012C12.6923 14.0757 12.8593 13.0864 12.9868 12.379C13.0505 12.0255 13.1042 11.743 13.1418 11.5497C13.1606 11.4531 13.1754 11.3788 13.1854 11.3291L13.1967 11.2734L13.1994 11.26L13.2001 11.2564Z" fill="white"/>
<path d="M19.5589 27.5794L17.4244 28.2909L17.2858 27.8739L18.3533 27.5191C17.2858 27.8739 17.2858 27.874 17.2858 27.8739L17.2844 27.8698L17.2814 27.8607L17.2707 27.828C17.2616 27.8 17.2486 27.7596 17.2322 27.708C17.1994 27.6047 17.1531 27.4563 17.0979 27.2717C16.9876 26.9031 16.8405 26.3875 16.6932 25.7977C16.4051 24.644 16.0911 23.1105 16.0911 21.8328C16.0911 20.5551 16.4051 19.0216 16.6932 17.8678C16.8405 17.2781 16.9876 16.7625 17.0979 16.3939C17.1531 16.2093 17.1994 16.0609 17.2322 15.9576C17.2486 15.906 17.2616 15.8656 17.2707 15.8376L17.2814 15.8049L17.2844 15.7958L17.2853 15.7931C17.2853 15.793 17.2858 15.7917 18.3533 16.1465L17.2858 15.7917L17.6033 14.8363L19.3836 16.6166C19.3814 16.6235 19.3791 16.6307 19.3768 16.6382C19.3473 16.731 19.3048 16.8675 19.2534 17.0391C19.1505 17.3829 19.0132 17.8642 18.8762 18.413C18.5957 19.5362 18.3411 20.8459 18.3411 21.8328C18.3411 22.8197 18.5957 24.1294 18.8762 25.2526C19.0132 25.8013 19.1505 26.2827 19.2534 26.6264C19.3048 26.798 19.3473 26.9346 19.3768 27.0273C19.3915 27.0737 19.4029 27.109 19.4104 27.1322L19.4188 27.1578L19.4206 27.1634L19.5589 27.5794Z" fill="white"/>
</svg>
