<svg width="36" height="36" viewBox="0 0 36 36" fill="none" xmlns="http://www.w3.org/2000/svg">
<path d="M18.078 1.875H17.922C16.5743 1.87496 15.4504 1.87492 14.5583 1.99487C13.6166 2.12148 12.7664 2.39998 12.0832 3.08319C11.4 3.76639 11.1215 4.61659 10.9949 5.55829C10.8749 6.45045 10.875 7.57426 10.875 8.92195L10.875 9.03858C11.5605 9.01615 12.308 9.00676 13.125 9.00283V9.00001C13.125 7.55399 13.1274 6.58265 13.2248 5.85809C13.3179 5.1659 13.4787 4.86965 13.6742 4.67418C13.8697 4.47871 14.1659 4.31787 14.8581 4.22481C15.5826 4.12739 16.554 4.12501 18 4.12501C19.446 4.12501 20.4174 4.12739 21.1419 4.22481C21.8341 4.31787 22.1304 4.47871 22.3258 4.67418C22.5213 4.86965 22.6821 5.1659 22.7752 5.85809C22.8726 6.58265 22.875 7.55399 22.875 9.00001V9.00283C23.692 9.00676 24.4395 9.01615 25.125 9.03858V8.92201C25.1251 7.57431 25.1251 6.45045 25.0051 5.55829C24.8785 4.61659 24.6 3.76639 23.9168 3.08319C23.2336 2.39998 22.3834 2.12148 21.4417 1.99487C20.5496 1.87492 19.4257 1.87496 18.078 1.875Z" fill="white"/>
<path opacity="0.5" fill-rule="evenodd" clip-rule="evenodd" d="M3 21C3 15.3431 3 12.5147 4.75736 10.7574C6.51472 9 9.34315 9 15 9H21C26.6569 9 29.4853 9 31.2426 10.7574C33 12.5147 33 15.3431 33 21C33 26.6569 33 29.4853 31.2426 31.2426C29.4853 33 26.6568 33 21 33H15C9.34314 33 6.51472 33 4.75736 31.2426C3 29.4853 3 26.6569 3 21ZM19.125 18.75C19.125 18.1287 18.6213 17.625 18 17.625C17.3787 17.625 16.875 18.1287 16.875 18.75V19.875H15.75C15.1287 19.875 14.625 20.3787 14.625 21C14.625 21.6213 15.1287 22.125 15.75 22.125H16.875V23.25C16.875 23.8713 17.3787 24.375 18 24.375C18.6213 24.375 19.125 23.8713 19.125 23.25V22.125H20.25C20.8713 22.125 21.375 21.6213 21.375 21C21.375 20.3787 20.8713 19.875 20.25 19.875H19.125V18.75Z" fill="white"/>
<path fill-rule="evenodd" clip-rule="evenodd" d="M18 27C21.3137 27 24 24.3137 24 21C24 17.6863 21.3137 15 18 15C14.6863 15 12 17.6863 12 21C12 24.3137 14.6863 27 18 27ZM19.125 18.75C19.125 18.1287 18.6213 17.625 18 17.625C17.3787 17.625 16.875 18.1287 16.875 18.75V19.875H15.75C15.1287 19.875 14.625 20.3787 14.625 21C14.625 21.6213 15.1287 22.125 15.75 22.125H16.875V23.25C16.875 23.8713 17.3787 24.375 18 24.375C18.6213 24.375 19.125 23.8713 19.125 23.25V22.125H20.25C20.8713 22.125 21.375 21.6213 21.375 21C21.375 20.3787 20.8713 19.875 20.25 19.875H19.125V18.75Z" fill="white"/>
</svg>
