<svg width="36" height="36" viewBox="0 0 36 36" fill="none" xmlns="http://www.w3.org/2000/svg">
<path opacity="0.5" d="M18 3C9.71573 3 3 9.71573 3 18C3 18.5309 3.02758 19.0554 3.08139 19.572C3.6046 20.0285 6.5505 22.5 9 22.5C10.818 22.5 12.9094 21.1386 14.0809 20.25L14.0943 20.2366C13.7162 19.5777 13.5 18.8141 13.5 18C13.5 15.5147 15.5147 13.5 18 13.5C20.4853 13.5 22.5 15.5147 22.5 18C22.5 19.3276 21.9251 20.521 21.0106 21.3447C21.7162 21.9637 22.6366 22.5 23.708 22.5C26.2422 22.5 26.2422 19.5 28.7764 19.5C30.3927 19.5 31.6653 20.7204 32.3752 21.6044L32.5137 21.8029C32.8311 20.5884 33 19.3139 33 18C33 9.71573 26.2843 3 18 3Z" fill="#3CBABA"/>
<path d="M14.0805 20.25C12.9091 21.1386 10.8177 22.5 8.99967 22.5C6.55017 22.5 3.60427 20.0285 3.08105 19.572C3.86687 27.1175 10.2463 33 17.9997 33C24.97 33 30.8299 28.2457 32.5134 21.8029L32.3749 21.6044C31.665 20.7204 30.3923 19.5 28.776 19.5C26.2418 19.5 26.2418 22.5 23.7077 22.5C22.6362 22.5 21.7158 21.9637 21.0102 21.3447C20.2128 22.0629 19.1573 22.5 17.9997 22.5C16.3285 22.5 14.8701 21.589 14.094 20.2366L14.0805 20.25Z" fill="#3CBABA"/>
<path d="M29.2917 8.12575C29.2616 8.15021 29.2324 8.17646 29.2044 8.20451L27.7044 9.70451C27.265 10.1438 27.265 10.8562 27.7044 11.2955C28.1437 11.7348 28.856 11.7348 29.2954 11.2955L30.652 9.93891C30.244 9.29993 29.7889 8.69391 29.2917 8.12575Z" fill="#3CBABA"/>
<path d="M8.12563 6.70817C8.15009 6.7383 8.17634 6.76745 8.20439 6.7955L9.70439 8.2955C10.1437 8.73484 10.856 8.73484 11.2954 8.2955C11.7347 7.85616 11.7347 7.14385 11.2954 6.70451L9.93879 5.34792C9.2998 5.75589 8.69379 6.21094 8.12563 6.70817Z" fill="#3CBABA"/>
<path d="M15.7044 6.7955C15.265 6.35616 15.265 5.64384 15.7044 5.2045C16.1437 4.76517 16.856 4.76517 17.2954 5.2045L18.7954 6.70451C19.2347 7.14384 19.2347 7.85616 18.7954 8.2955C18.356 8.73483 17.6437 8.73483 17.2044 8.2955L15.7044 6.7955Z" fill="#3CBABA"/>
<path d="M24.8999 8.175C25.2727 7.67794 25.1719 6.97279 24.6749 6.6C24.1778 6.22721 23.4727 6.32794 23.0999 6.825L20.8499 9.825C20.4771 10.3221 20.5778 11.0272 21.0749 11.4C21.5719 11.7728 22.2771 11.6721 22.6499 11.175L24.8999 8.175Z" fill="#3CBABA"/>
<path d="M12.6142 11.3402C12.775 11.9404 13.3919 12.2965 13.992 12.1357L16.0411 11.5867C16.6412 11.4259 16.9974 10.809 16.8365 10.2088C16.6757 9.60868 16.0589 9.25252 15.4587 9.41333L13.4097 9.96237C12.8095 10.1232 12.4534 10.7401 12.6142 11.3402Z" fill="#3CBABA"/>
<path d="M26.1978 15.5311C26.227 16.1517 25.7475 16.6785 25.1269 16.7076C24.5062 16.7368 23.9795 16.2573 23.9503 15.6367L23.8507 13.5177C23.8216 12.8971 24.301 12.3703 24.9217 12.3411C25.5423 12.312 26.0691 12.7915 26.0982 13.4121L26.1978 15.5311Z" fill="#3CBABA"/>
<path d="M27.6551 18.0878C28.0657 18.5541 28.7766 18.5992 29.2429 18.1886L31.76 15.9718C32.2263 15.5612 32.2714 14.8503 31.8607 14.384C31.4501 13.9177 30.7392 13.8726 30.2729 14.2833L27.7558 16.5C27.2895 16.9107 27.2444 17.6216 27.6551 18.0878Z" fill="#3CBABA"/>
<path d="M8.28656 12.2502C8.02944 11.6845 8.27954 11.0176 8.84517 10.7605C9.41079 10.5033 10.0778 10.7534 10.3349 11.3191L11.2127 13.2502C11.4698 13.8159 11.2197 14.4828 10.6541 14.7399C10.0885 14.997 9.42151 14.747 9.1644 14.1813L8.28656 12.2502Z" fill="#3CBABA"/>
<path d="M10.4143 16.3425C10.9157 16.7095 11.0247 17.4134 10.6577 17.9148L9.40487 19.6266C9.03792 20.128 8.33399 20.237 7.83261 19.87C7.33122 19.5031 7.22224 18.7992 7.5892 18.2978L8.84205 16.5859C9.209 16.0846 9.91292 15.9756 10.4143 16.3425Z" fill="#3CBABA"/>
<path d="M4.28302 13.4689C4.24846 12.8486 4.72335 12.3177 5.34371 12.2831C5.96406 12.2485 6.49498 12.7234 6.52954 13.3438L6.64753 15.4618C6.68209 16.0822 6.20721 16.6131 5.58685 16.6476C4.96649 16.6822 4.43558 16.2073 4.40102 15.587L4.28302 13.4689Z" fill="#3CBABA"/>
</svg>
