<svg width="36" height="36" viewBox="0 0 36 36" fill="none" xmlns="http://www.w3.org/2000/svg">
<path fill-rule="evenodd" clip-rule="evenodd" d="M17.6888 14.8199C18.9994 14.8047 20.3279 15.168 21.4553 15.928L32.604 23.4435C34.0285 24.4038 34.4143 25.9884 33.9187 27.3247C33.4312 28.6393 32.1328 29.625 30.4459 29.625H5.55347C3.88446 29.625 2.59167 28.6574 2.0935 27.3588C1.58709 26.0386 1.94486 24.4629 3.33536 23.4848L13.9789 15.9979C15.0808 15.2228 16.389 14.835 17.6888 14.8199ZM20.1976 17.7937C19.4737 17.3057 18.599 17.0595 17.715 17.0698C16.8383 17.08 15.9788 17.3421 15.2734 17.8382L4.62988 25.3251C4.11225 25.6893 4.04395 26.1611 4.19424 26.5529C4.35277 26.9662 4.79947 27.375 5.55347 27.375H30.4459C31.2084 27.375 31.6545 26.9594 31.8091 26.5424C31.9557 26.1471 31.8815 25.6699 31.3464 25.3092L20.1976 17.7937Z" fill="#3CBABA"/>
<path opacity="0.5" d="M15.4287 10.3636C15.4287 9.51329 16.2356 8.625 17.4897 8.625C18.7439 8.625 19.5507 9.51329 19.5507 10.3636C19.5507 10.832 19.3837 11.2367 19.1105 11.5339C18.9411 11.7181 18.7544 11.9023 18.5416 12.1122L18.4197 12.2326C18.1669 12.4827 17.8849 12.7661 17.6272 13.0692C17.2291 13.5373 16.7978 14.1549 16.6397 14.9141C16.9873 14.8556 17.3385 14.8244 17.6891 14.8203C18.138 14.8151 18.5891 14.8543 19.0334 14.9386C19.1094 14.8172 19.2101 14.6809 19.3411 14.5268C19.5305 14.3042 19.7515 14.0801 20.0022 13.8321L20.113 13.7228C20.3245 13.5141 20.5569 13.285 20.7669 13.0566C21.43 12.3353 21.8007 11.3839 21.8007 10.3636C21.8007 8.0509 19.7547 6.375 17.4897 6.375C15.2247 6.375 13.1787 8.0509 13.1787 10.3636C13.1787 10.985 13.6824 11.4886 14.3037 11.4886C14.925 11.4886 15.4287 10.985 15.4287 10.3636Z" fill="#3CBABA"/>
</svg>
