<svg width="36" height="36" viewBox="0 0 36 36" fill="none" xmlns="http://www.w3.org/2000/svg">
<path d="M14.0624 12.3908C14.675 12.287 15.2557 12.6995 15.3595 13.3121L16.1518 17.9889C16.2556 18.6015 15.8431 19.1822 15.2305 19.286C14.6179 19.3898 14.0372 18.9773 13.9334 18.3647L13.1411 13.6879C13.0373 13.0753 13.4498 12.4946 14.0624 12.3908Z" fill="#888888"/>
<path d="M22.1836 13.3121C22.2874 12.6995 22.8681 12.287 23.4807 12.3908C24.0933 12.4946 24.5058 13.0753 24.402 13.6879L23.6097 18.3647C23.5059 18.9773 22.9252 19.3898 22.3126 19.286C21.7 19.1822 21.2875 18.6015 21.3913 17.9889L22.1836 13.3121Z" fill="#888888"/>
<path fill-rule="evenodd" clip-rule="evenodd" d="M3.37344 3.43868C2.78729 3.23261 2.14507 3.54072 1.93899 4.12686C1.73291 4.71301 2.04102 5.35524 2.62717 5.56132L3.01898 5.69907C4.0204 6.05115 4.67853 6.28447 5.16279 6.52209C5.61763 6.74526 5.81814 6.92591 5.95022 7.1192C6.08561 7.31733 6.19017 7.58946 6.24916 8.13449C6.3109 8.70479 6.31243 9.44762 6.31243 10.5575V14.64C6.31243 16.8188 6.33287 18.3898 6.53845 19.5902C6.75793 20.8716 7.19613 21.7891 8.01549 22.6533C8.90627 23.5928 10.0355 24.0019 11.3798 24.1925C12.6672 24.3751 14.302 24.375 16.3205 24.375L24.4291 24.375C25.5416 24.375 26.4777 24.3751 27.2352 24.2824C28.0388 24.184 28.7717 23.969 29.4114 23.4477C30.0512 22.9264 30.4097 22.252 30.6682 21.4848C30.9119 20.7616 31.1008 19.8448 31.3254 18.7552L32.0888 15.0512L32.0902 15.0443L32.1059 14.9659C32.3529 13.7286 32.5607 12.6877 32.6123 11.8506C32.6666 10.9713 32.5665 10.1043 31.9937 9.35967C31.6413 8.90153 31.1458 8.64218 30.695 8.4838C30.2353 8.32226 29.7155 8.22881 29.1909 8.17017C28.1603 8.05496 26.9083 8.05498 25.6804 8.055L8.50213 8.055C8.4972 7.99987 8.49187 7.94566 8.4861 7.89235C8.4055 7.14778 8.23088 6.46871 7.80791 5.84975C7.38163 5.22595 6.81486 4.82645 6.15392 4.50214C5.53578 4.19884 4.75034 3.92273 3.82554 3.59763L3.37344 3.43868ZM8.56241 10.305H25.6336C26.9181 10.305 28.0487 10.3065 28.9409 10.4062C29.3842 10.4558 29.716 10.5247 29.9492 10.6066C30.1397 10.6735 30.2042 10.7282 30.2135 10.7361C30.3055 10.8582 30.4056 11.0798 30.3666 11.712C30.3256 12.3773 30.1508 13.2657 29.8844 14.6006L29.8837 14.6039L29.1355 18.2341C28.8935 19.4084 28.7306 20.1889 28.536 20.7662C28.3513 21.3143 28.1779 21.5504 27.99 21.7035C27.8022 21.8566 27.5359 21.9788 26.9619 22.049C26.3571 22.123 25.5598 22.125 24.3608 22.125H16.4065C14.2813 22.125 12.8067 22.1223 11.6957 21.9648C10.6235 21.8128 10.0571 21.5364 9.64828 21.1052C9.16803 20.5987 8.909 20.1027 8.75616 19.2103C8.58941 18.2368 8.56243 16.8736 8.56243 14.64L8.56241 10.305Z" fill="#888888"/>
<path fill-rule="evenodd" clip-rule="evenodd" d="M11.2503 32.625C9.38635 32.625 7.87531 31.114 7.87531 29.25C7.87531 27.386 9.38635 25.875 11.2503 25.875C13.1143 25.875 14.6253 27.386 14.6253 29.25C14.6253 31.114 13.1143 32.625 11.2503 32.625ZM10.1253 29.25C10.1253 29.8713 10.629 30.375 11.2503 30.375C11.8716 30.375 12.3753 29.8713 12.3753 29.25C12.3753 28.6287 11.8716 28.125 11.2503 28.125C10.629 28.125 10.1253 28.6287 10.1253 29.25Z" fill="#888888"/>
<path fill-rule="evenodd" clip-rule="evenodd" d="M24.7503 32.6251C22.8863 32.6251 21.3753 31.1141 21.3753 29.2501C21.3753 27.3862 22.8863 25.8751 24.7503 25.8751C26.6143 25.8751 28.1253 27.3862 28.1253 29.2501C28.1253 31.1141 26.6143 32.6251 24.7503 32.6251ZM23.6253 29.2501C23.6253 29.8714 24.129 30.3751 24.7503 30.3751C25.3716 30.3751 25.8753 29.8714 25.8753 29.2501C25.8753 28.6288 25.3716 28.1251 24.7503 28.1251C24.129 28.1251 23.6253 28.6288 23.6253 29.2501Z" fill="#888888"/>
</svg>
