<svg width="36" height="36" viewBox="0 0 36 36" fill="none" xmlns="http://www.w3.org/2000/svg">
<path fill-rule="evenodd" clip-rule="evenodd" d="M3.375 9C3.375 8.37868 3.87868 7.875 4.5 7.875H30C30.6213 7.875 31.125 8.37868 31.125 9C31.125 9.62132 30.6213 10.125 30 10.125H4.5C3.87868 10.125 3.375 9.62132 3.375 9ZM3.375 16.5C3.375 15.8787 3.87868 15.375 4.5 15.375H13.5C14.1213 15.375 14.625 15.8787 14.625 16.5C14.625 17.1213 14.1213 17.625 13.5 17.625H4.5C3.87868 17.625 3.375 17.1213 3.375 16.5ZM3.375 24C3.375 23.3787 3.87868 22.875 4.5 22.875H15C15.6213 22.875 16.125 23.3787 16.125 24C16.125 24.6213 15.6213 25.125 15 25.125H4.5C3.87868 25.125 3.375 24.6213 3.375 24Z" fill="#B8B8B8"/>
<path d="M19.5 17.5721C19.5 20.201 22.745 22.9956 24.7351 24.4624C25.4163 24.9644 25.757 25.2155 26.25 25.2155C26.743 25.2155 27.0837 24.9644 27.7649 24.4624C29.7551 22.9956 33 20.2011 33 17.5721C33 13.5564 29.2874 12.0571 26.25 15.1592C23.2126 12.0571 19.5 13.5564 19.5 17.5721Z" fill="#A0A0A0"/>
</svg>
