<svg width="38" height="36" viewBox="0 0 38 36" fill="none" xmlns="http://www.w3.org/2000/svg">
<path d="M25.9729 3H11.7426C9.85242 3 8.90735 3 8.14787 3.44805C7.38839 3.89609 6.96574 4.70297 6.12045 6.31672L3.91477 11.6389C3.40517 12.8686 2.9593 14.3179 3.81711 15.3562C4.3926 16.0528 5.28467 16.5 6.28621 16.5C8.02196 16.5 9.42907 15.1569 9.42907 13.5C9.42907 15.1569 10.8362 16.5 12.5719 16.5C14.3077 16.5 15.7148 15.1569 15.7148 13.5C15.7148 15.1569 17.1219 16.5 18.8576 16.5C20.5934 16.5 22.0005 15.1569 22.0005 13.5C22.0005 15.1569 23.4076 16.5 25.1434 16.5C26.8791 16.5 28.2862 15.1569 28.2862 13.5C28.2862 15.1569 29.6933 16.5 31.4291 16.5C32.4306 16.5 33.3227 16.0528 33.8983 15.3562C34.7561 14.3179 34.3102 12.8686 33.8006 11.6389L31.595 6.31672C30.7497 4.70297 30.327 3.8961 29.5675 3.44805C28.8081 3 27.863 3 25.9729 3Z" fill="#A0A0A0"/>
<path fill-rule="evenodd" clip-rule="evenodd" d="M31.4291 31.875H34.572C35.2229 31.875 35.7506 32.3787 35.7506 33C35.7506 33.6213 35.2229 34.125 34.572 34.125H3.14342C2.49251 34.125 1.96484 33.6213 1.96484 33C1.96484 32.3787 2.49251 31.875 3.14342 31.875H6.28627L6.28628 18.75C7.45483 18.75 8.53826 18.4021 9.42913 17.809C10.32 18.4021 11.4034 18.75 12.572 18.75C13.7405 18.75 14.824 18.4021 15.7148 17.809C16.6057 18.4021 17.6892 18.75 18.8577 18.75C20.0263 18.75 21.1097 18.4021 22.0006 17.809C22.8914 18.4021 23.9749 18.75 25.1434 18.75C26.312 18.75 27.3954 18.4021 28.2863 17.809C29.1771 18.4021 30.2606 18.75 31.4291 18.75L31.4291 31.875ZM14.9291 31.875H22.7863V27.75C22.7863 26.3481 22.7863 25.6471 22.4705 25.125C22.2636 24.7829 21.966 24.4989 21.6077 24.3014C21.0607 24 20.3264 24 18.8577 24C17.389 24 16.6547 24 16.1077 24.3014C15.7494 24.4989 15.4518 24.7829 15.2449 25.125C14.9291 25.6471 14.9291 26.3481 14.9291 27.75V31.875Z" fill="#A0A0A0"/>
</svg>
